<mxfile host="app.diagrams.net" modified="2024-04-26T17:52:54.564Z" agent="Mozilla/5.0 (Windows NT 10.0; Win64; x64) AppleWebKit/537.36 (KHTML, like Gecko) Chrome/124.0.0.0 Safari/537.36" etag="Cgbpc_pGb67cF0Fkx30F" version="24.2.7" type="device">
  <diagram name="PÃ¡gina-1" id="B37l6Q-_GdIAhXoT4AqA">
    <mxGraphModel dx="2261" dy="780" grid="1" gridSize="10" guides="1" tooltips="1" connect="1" arrows="1" fold="1" page="1" pageScale="1" pageWidth="827" pageHeight="1169" math="0" shadow="0">
      <root>
        <mxCell id="0" />
        <mxCell id="1" parent="0" />
        <mxCell id="jVQAm5ijUV9Yf-G5sRUD-1" value="" style="rounded=0;whiteSpace=wrap;html=1;" vertex="1" parent="1">
          <mxGeometry x="-60" y="50" width="950" height="690" as="geometry" />
        </mxCell>
        <mxCell id="jVQAm5ijUV9Yf-G5sRUD-2" value="Usuario" style="shape=umlActor;verticalLabelPosition=bottom;verticalAlign=top;html=1;outlineConnect=0;" vertex="1" parent="1">
          <mxGeometry x="-160" y="240" width="30" height="60" as="geometry" />
        </mxCell>
        <mxCell id="jVQAm5ijUV9Yf-G5sRUD-7" style="edgeStyle=orthogonalEdgeStyle;rounded=0;orthogonalLoop=1;jettySize=auto;html=1;exitX=0.5;exitY=0.5;exitDx=0;exitDy=0;exitPerimeter=0;endArrow=none;endFill=0;" edge="1" parent="1" source="jVQAm5ijUV9Yf-G5sRUD-3" target="jVQAm5ijUV9Yf-G5sRUD-5">
          <mxGeometry relative="1" as="geometry" />
        </mxCell>
        <mxCell id="jVQAm5ijUV9Yf-G5sRUD-10" style="edgeStyle=orthogonalEdgeStyle;rounded=0;orthogonalLoop=1;jettySize=auto;html=1;exitX=0.5;exitY=0.5;exitDx=0;exitDy=0;exitPerimeter=0;entryX=1;entryY=0.5;entryDx=0;entryDy=0;endArrow=none;endFill=0;" edge="1" parent="1" source="jVQAm5ijUV9Yf-G5sRUD-3" target="jVQAm5ijUV9Yf-G5sRUD-9">
          <mxGeometry relative="1" as="geometry" />
        </mxCell>
        <mxCell id="jVQAm5ijUV9Yf-G5sRUD-20" style="edgeStyle=orthogonalEdgeStyle;rounded=0;orthogonalLoop=1;jettySize=auto;html=1;exitX=0.5;exitY=0.5;exitDx=0;exitDy=0;exitPerimeter=0;entryX=1;entryY=0.5;entryDx=0;entryDy=0;" edge="1" parent="1" source="jVQAm5ijUV9Yf-G5sRUD-3" target="jVQAm5ijUV9Yf-G5sRUD-14">
          <mxGeometry relative="1" as="geometry">
            <Array as="points">
              <mxPoint x="790" y="270" />
              <mxPoint x="790" y="420" />
            </Array>
          </mxGeometry>
        </mxCell>
        <mxCell id="jVQAm5ijUV9Yf-G5sRUD-3" value="Operador" style="shape=umlActor;verticalLabelPosition=bottom;verticalAlign=top;html=1;outlineConnect=0;" vertex="1" parent="1">
          <mxGeometry x="930" y="240" width="30" height="60" as="geometry" />
        </mxCell>
        <mxCell id="jVQAm5ijUV9Yf-G5sRUD-4" value="SISTEMA DE MAQUINA DE RECICLAJE" style="text;html=1;align=center;verticalAlign=middle;whiteSpace=wrap;rounded=0;" vertex="1" parent="1">
          <mxGeometry x="244" y="80" width="340" height="30" as="geometry" />
        </mxCell>
        <mxCell id="jVQAm5ijUV9Yf-G5sRUD-5" value="Registrar Objetos Ingresados" style="ellipse;whiteSpace=wrap;html=1;" vertex="1" parent="1">
          <mxGeometry x="730" y="115" width="120" height="80" as="geometry" />
        </mxCell>
        <mxCell id="jVQAm5ijUV9Yf-G5sRUD-37" style="edgeStyle=orthogonalEdgeStyle;rounded=0;orthogonalLoop=1;jettySize=auto;html=1;exitX=0;exitY=0.5;exitDx=0;exitDy=0;entryX=1;entryY=0.5;entryDx=0;entryDy=0;dashed=1;" edge="1" parent="1" source="jVQAm5ijUV9Yf-G5sRUD-6" target="jVQAm5ijUV9Yf-G5sRUD-29">
          <mxGeometry relative="1" as="geometry" />
        </mxCell>
        <mxCell id="jVQAm5ijUV9Yf-G5sRUD-6" value="Imprimir Recibo" style="ellipse;whiteSpace=wrap;html=1;" vertex="1" parent="1">
          <mxGeometry x="360" y="230" width="130" height="80" as="geometry" />
        </mxCell>
        <mxCell id="jVQAm5ijUV9Yf-G5sRUD-9" value="Imprimir resumen Diario" style="ellipse;whiteSpace=wrap;html=1;" vertex="1" parent="1">
          <mxGeometry x="600" y="230" width="120" height="80" as="geometry" />
        </mxCell>
        <mxCell id="jVQAm5ijUV9Yf-G5sRUD-11" value="" style="endArrow=none;html=1;rounded=0;entryX=0;entryY=0.5;entryDx=0;entryDy=0;exitX=1;exitY=0.5;exitDx=0;exitDy=0;dashed=1;endFill=0;startArrow=classic;startFill=1;" edge="1" parent="1" source="jVQAm5ijUV9Yf-G5sRUD-6" target="jVQAm5ijUV9Yf-G5sRUD-9">
          <mxGeometry width="50" height="50" relative="1" as="geometry">
            <mxPoint x="300" y="430" as="sourcePoint" />
            <mxPoint x="350" y="380" as="targetPoint" />
          </mxGeometry>
        </mxCell>
        <mxCell id="jVQAm5ijUV9Yf-G5sRUD-12" value="&amp;lt;&amp;lt;Include&amp;gt;&amp;gt;" style="text;html=1;align=center;verticalAlign=middle;whiteSpace=wrap;rounded=0;" vertex="1" parent="1">
          <mxGeometry x="520" y="285" width="60" height="30" as="geometry" />
        </mxCell>
        <mxCell id="jVQAm5ijUV9Yf-G5sRUD-14" value="Cambiar Informacion Objeto" style="ellipse;whiteSpace=wrap;html=1;" vertex="1" parent="1">
          <mxGeometry x="600" y="380" width="120" height="80" as="geometry" />
        </mxCell>
        <mxCell id="jVQAm5ijUV9Yf-G5sRUD-35" style="edgeStyle=orthogonalEdgeStyle;rounded=0;orthogonalLoop=1;jettySize=auto;html=1;exitX=0.5;exitY=1;exitDx=0;exitDy=0;entryX=0.5;entryY=0;entryDx=0;entryDy=0;" edge="1" parent="1" source="jVQAm5ijUV9Yf-G5sRUD-15" target="jVQAm5ijUV9Yf-G5sRUD-29">
          <mxGeometry relative="1" as="geometry" />
        </mxCell>
        <mxCell id="jVQAm5ijUV9Yf-G5sRUD-15" value="Depositar Tarro" style="ellipse;whiteSpace=wrap;html=1;" vertex="1" parent="1">
          <mxGeometry x="70" y="100" width="120" height="80" as="geometry" />
        </mxCell>
        <mxCell id="jVQAm5ijUV9Yf-G5sRUD-36" style="edgeStyle=orthogonalEdgeStyle;rounded=0;orthogonalLoop=1;jettySize=auto;html=1;exitX=0.5;exitY=0;exitDx=0;exitDy=0;entryX=0.5;entryY=1;entryDx=0;entryDy=0;" edge="1" parent="1" source="jVQAm5ijUV9Yf-G5sRUD-16" target="jVQAm5ijUV9Yf-G5sRUD-29">
          <mxGeometry relative="1" as="geometry" />
        </mxCell>
        <mxCell id="jVQAm5ijUV9Yf-G5sRUD-16" value="Depositar Botella" style="ellipse;whiteSpace=wrap;html=1;" vertex="1" parent="1">
          <mxGeometry x="70" y="360" width="120" height="80" as="geometry" />
        </mxCell>
        <mxCell id="jVQAm5ijUV9Yf-G5sRUD-38" style="edgeStyle=orthogonalEdgeStyle;rounded=0;orthogonalLoop=1;jettySize=auto;html=1;exitX=0;exitY=0.5;exitDx=0;exitDy=0;entryX=1;entryY=1;entryDx=0;entryDy=0;dashed=1;" edge="1" parent="1" target="jVQAm5ijUV9Yf-G5sRUD-29">
          <mxGeometry relative="1" as="geometry">
            <mxPoint x="433.6" y="511.72" as="sourcePoint" />
            <mxPoint x="290.02640687119276" y="300.0042712474617" as="targetPoint" />
          </mxGeometry>
        </mxCell>
        <mxCell id="jVQAm5ijUV9Yf-G5sRUD-25" value="Activar Alarma" style="ellipse;whiteSpace=wrap;html=1;" vertex="1" parent="1">
          <mxGeometry x="370" y="470" width="120" height="80" as="geometry" />
        </mxCell>
        <mxCell id="jVQAm5ijUV9Yf-G5sRUD-26" value="" style="endArrow=classic;html=1;rounded=0;exitX=0.5;exitY=0;exitDx=0;exitDy=0;entryX=0.5;entryY=1;entryDx=0;entryDy=0;dashed=1;" edge="1" parent="1" source="jVQAm5ijUV9Yf-G5sRUD-25" target="jVQAm5ijUV9Yf-G5sRUD-6">
          <mxGeometry width="50" height="50" relative="1" as="geometry">
            <mxPoint x="390" y="430" as="sourcePoint" />
            <mxPoint x="440" y="380" as="targetPoint" />
          </mxGeometry>
        </mxCell>
        <mxCell id="jVQAm5ijUV9Yf-G5sRUD-27" value="&amp;lt;&amp;lt;Extends&amp;gt;&amp;gt;" style="text;html=1;align=center;verticalAlign=middle;whiteSpace=wrap;rounded=0;" vertex="1" parent="1">
          <mxGeometry x="480" y="380" width="60" height="30" as="geometry" />
        </mxCell>
        <mxCell id="jVQAm5ijUV9Yf-G5sRUD-29" value="Depositar Objeto" style="ellipse;whiteSpace=wrap;html=1;" vertex="1" parent="1">
          <mxGeometry x="124" y="230" width="120" height="80" as="geometry" />
        </mxCell>
        <mxCell id="jVQAm5ijUV9Yf-G5sRUD-32" value="&amp;lt;&amp;lt;Extends&amp;gt;&amp;gt;" style="text;html=1;align=center;verticalAlign=middle;whiteSpace=wrap;rounded=0;" vertex="1" parent="1">
          <mxGeometry x="270" y="270" width="60" height="30" as="geometry" />
        </mxCell>
        <mxCell id="jVQAm5ijUV9Yf-G5sRUD-34" value="" style="endArrow=none;html=1;rounded=0;exitX=0.5;exitY=0.5;exitDx=0;exitDy=0;exitPerimeter=0;entryX=0;entryY=0.5;entryDx=0;entryDy=0;" edge="1" parent="1" source="jVQAm5ijUV9Yf-G5sRUD-2" target="jVQAm5ijUV9Yf-G5sRUD-29">
          <mxGeometry width="50" height="50" relative="1" as="geometry">
            <mxPoint x="390" y="430" as="sourcePoint" />
            <mxPoint x="440" y="380" as="targetPoint" />
          </mxGeometry>
        </mxCell>
      </root>
    </mxGraphModel>
  </diagram>
</mxfile>
